<svg version="1.1" xmlns="http://www.w3.org/2000/svg" xmlns:xlink="http://www.w3.org/1999/xlink" width="25" height="12" viewBox="0 0 25 12"><path id="Link" d="M24.976,0.505 C24.865,0.835 24.736,1.159 24.609,1.483 C24.229,2.448 23.841,3.411 23.466,4.378 C23.372,4.620 23.245,4.827 22.963,4.830 C22.682,4.833 22.545,4.632 22.449,4.390 C22.075,3.442 21.693,2.498 21.285,1.481 C20.894,2.453 20.532,3.352 20.171,4.252 C20.152,4.298 20.133,4.344 20.116,4.391 C20.031,4.636 19.885,4.834 19.602,4.830 C19.333,4.826 19.200,4.632 19.110,4.397 C18.884,3.809 18.647,3.224 18.416,2.637 C18.157,1.981 17.901,1.324 17.643,0.667 C17.628,0.629 17.609,0.591 17.598,0.552 C17.531,0.321 17.622,0.107 17.818,0.031 C18.033,-0.052 18.252,0.037 18.350,0.277 C18.593,0.868 18.823,1.464 19.059,2.058 C19.234,2.503 19.410,2.947 19.614,3.463 C19.835,2.917 20.029,2.437 20.223,1.957 C20.440,1.418 20.660,0.880 20.873,0.340 C20.950,0.145 21.059,0.006 21.291,0.010 C21.523,0.013 21.626,0.162 21.702,0.352 C22.084,1.308 22.469,2.262 22.853,3.217 C22.877,3.276 22.905,3.334 22.951,3.438 C23.010,3.307 23.055,3.216 23.092,3.122 C23.452,2.211 23.810,1.299 24.169,0.388 C24.191,0.334 24.211,0.279 24.240,0.229 C24.349,0.034 24.560,-0.052 24.754,0.035 C24.955,0.126 25.046,0.294 24.976,0.505 zM21.045,8.540 C21.111,9.179 21.102,9.837 21.027,10.475 C20.926,11.333 20.188,11.964 19.311,11.980 C18.007,12.004 16.702,12.007 15.398,11.981 C14.402,11.960 13.650,11.166 13.619,10.168 C13.616,10.078 13.618,9.988 13.618,9.880 C12.922,9.880 12.247,9.880 11.574,9.880 C11.544,10.132 11.539,10.374 11.483,10.604 C11.293,11.389 10.592,11.972 9.776,11.984 C8.472,12.003 7.167,12.006 5.862,11.983 C4.902,11.966 4.137,11.184 4.106,10.233 C4.090,9.727 4.088,9.220 4.103,8.714 C4.131,7.745 4.882,6.964 5.864,6.943 C7.193,6.914 8.524,6.919 9.853,6.946 C10.720,6.963 11.485,7.751 11.536,8.612 C11.545,8.751 11.538,8.891 11.538,9.047 C12.243,9.047 12.919,9.047 13.600,9.047 C13.616,8.860 13.623,8.686 13.647,8.515 C13.769,7.635 14.490,6.960 15.391,6.943 C16.678,6.919 17.967,6.915 19.254,6.941 C20.220,6.962 20.948,7.598 21.045,8.540 zM9.056,9.070 C9.182,9.061 9.308,9.065 9.434,9.065 C9.861,9.064 10.288,9.064 10.710,9.064 C10.818,8.284 10.397,7.740 9.667,7.732 C8.422,7.717 7.176,7.721 5.932,7.735 C5.347,7.741 4.923,8.180 4.912,8.755 C4.904,9.212 4.904,9.668 4.910,10.124 C4.918,10.757 5.346,11.188 5.990,11.192 C7.209,11.199 8.429,11.200 9.649,11.189 C10.394,11.183 10.841,10.620 10.701,9.862 C10.524,9.862 10.341,9.862 10.158,9.862 C9.796,9.862 9.434,9.868 9.073,9.859 C8.814,9.852 8.650,9.684 8.652,9.457 C8.653,9.235 8.800,9.090 9.056,9.070 zM15.557,7.728 C14.793,7.735 14.343,8.276 14.453,9.062 C14.559,9.062 14.651,9.062 14.742,9.062 C15.399,9.063 16.055,9.058 16.711,9.068 C17.075,9.073 17.268,9.370 17.111,9.654 C17.011,9.835 16.840,9.861 16.657,9.861 C16.017,9.861 15.378,9.861 14.738,9.862 C14.641,9.862 14.544,9.871 14.452,9.876 C14.350,10.641 14.795,11.188 15.514,11.192 C16.735,11.199 17.955,11.199 19.175,11.192 C19.823,11.189 20.260,10.748 20.268,10.105 C20.274,9.699 20.273,9.292 20.269,8.885 C20.261,8.151 19.858,7.736 19.117,7.730 C17.930,7.719 16.744,7.718 15.557,7.728 zM14.658,4.426 C14.569,4.652 14.426,4.828 14.170,4.831 C13.912,4.835 13.764,4.661 13.680,4.432 C13.663,4.386 13.641,4.341 13.623,4.295 C13.296,3.478 12.970,2.661 12.643,1.844 C12.604,1.747 12.560,1.652 12.490,1.494 C12.089,2.491 11.714,3.423 11.340,4.354 C11.324,4.393 11.309,4.431 11.294,4.470 C11.214,4.684 11.061,4.829 10.830,4.830 C10.586,4.832 10.431,4.679 10.345,4.459 C10.276,4.281 10.206,4.103 10.136,3.926 C9.704,2.829 9.274,1.732 8.841,0.636 C8.770,0.455 8.732,0.263 8.899,0.133 C8.997,0.056 9.184,-0.006 9.281,0.036 C9.414,0.094 9.544,0.241 9.600,0.379 C9.986,1.315 10.351,2.260 10.723,3.201 C10.749,3.267 10.779,3.331 10.830,3.447 C10.976,3.089 11.104,2.778 11.230,2.466 C11.503,1.789 11.775,1.111 12.046,0.433 C12.131,0.220 12.212,0.006 12.503,0.010 C12.780,0.013 12.859,0.217 12.941,0.422 C13.305,1.331 13.670,2.240 14.035,3.149 C14.069,3.231 14.106,3.312 14.159,3.434 C14.206,3.337 14.240,3.276 14.265,3.212 C14.638,2.270 15.009,1.328 15.382,0.387 C15.415,0.303 15.445,0.184 15.511,0.153 C15.651,0.088 15.824,0.018 15.965,0.044 C16.138,0.076 16.223,0.248 16.202,0.434 C16.194,0.515 16.166,0.596 16.136,0.673 C15.644,1.924 15.149,3.174 14.658,4.426 zM6.851,1.931 C6.522,2.765 6.197,3.600 5.864,4.432 C5.711,4.815 5.364,4.953 5.096,4.729 C4.994,4.643 4.925,4.504 4.873,4.377 C4.521,3.517 4.178,2.653 3.831,1.790 C3.798,1.709 3.761,1.629 3.702,1.496 C3.506,1.981 3.330,2.415 3.155,2.849 C2.940,3.381 2.724,3.911 2.515,4.444 C2.429,4.666 2.282,4.825 2.041,4.831 C1.784,4.837 1.636,4.663 1.547,4.437 C1.049,3.170 0.548,1.904 0.052,0.637 C-0.063,0.342 0.019,0.110 0.249,0.029 C0.491,-0.056 0.688,0.054 0.807,0.354 C1.169,1.264 1.527,2.176 1.886,3.087 C1.928,3.191 1.970,3.295 2.031,3.449 C2.086,3.327 2.121,3.256 2.151,3.182 C2.523,2.258 2.894,1.334 3.265,0.410 C3.348,0.202 3.437,0.006 3.713,0.009 C3.990,0.011 4.070,0.217 4.152,0.421 C4.520,1.338 4.888,2.254 5.256,3.171 C5.286,3.245 5.321,3.317 5.375,3.438 C5.436,3.300 5.480,3.207 5.518,3.111 C5.877,2.200 6.228,1.286 6.600,0.379 C6.657,0.241 6.785,0.093 6.918,0.035 C7.015,-0.008 7.233,0.050 7.292,0.134 C7.374,0.250 7.415,0.452 7.372,0.585 C7.222,1.041 7.028,1.483 6.851,1.931 z" fill="#757575" /></svg>